<?xml version="1.0" encoding="UTF-8" standalone="no"?>
<!-- Created with Inkscape (http://www.inkscape.org/) -->

<svg
   width="966.06464"
   height="190.50578"
   viewBox="0 0 966.06463 190.50578"
   version="1.1"
   id="svg5"
   xml:space="preserve"
   inkscape:version="1.3.2 (091e20e, 2023-11-25)"
   sodipodi:docname="aplogo-profile-min.svg"
   inkscape:export-filename="aplogo-profile.png"
   inkscape:export-xdpi="320"
   inkscape:export-ydpi="320"
   xmlns:inkscape="http://www.inkscape.org/namespaces/inkscape"
   xmlns:sodipodi="http://sodipodi.sourceforge.net/DTD/sodipodi-0.dtd"
   xmlns:xlink="http://www.w3.org/1999/xlink"
   xmlns="http://www.w3.org/2000/svg"
   xmlns:svg="http://www.w3.org/2000/svg"><sodipodi:namedview
     id="namedview7"
     pagecolor="#ffffff"
     bordercolor="#000000"
     borderopacity="0.25"
     inkscape:showpageshadow="2"
     inkscape:pageopacity="0.0"
     inkscape:pagecheckerboard="0"
     inkscape:deskcolor="#d1d1d1"
     inkscape:document-units="px"
     showgrid="false"
     inkscape:zoom="0.9593082"
     inkscape:cx="453.97298"
     inkscape:cy="98.508488"
     inkscape:window-width="1920"
     inkscape:window-height="1007"
     inkscape:window-x="0"
     inkscape:window-y="0"
     inkscape:window-maximized="1"
     inkscape:current-layer="layer1"
     showguides="true"><sodipodi:guide
       position="361.06945,215.82216"
       orientation="-1,0"
       id="guide1126"
       inkscape:locked="false"
       inkscape:label=""
       inkscape:color="rgb(0,134,229)" /><sodipodi:guide
       position="601.06945,223.08023"
       orientation="-1,0"
       id="guide1128"
       inkscape:locked="false"
       inkscape:label=""
       inkscape:color="rgb(0,134,229)" /></sodipodi:namedview><defs
     id="defs2"><clipPath
       clipPathUnits="userSpaceOnUse"
       id="clipPath5"><rect
         style="fill:#000000;stroke:#000000;stroke-width:0;stroke-linejoin:bevel;paint-order:stroke markers fill;stop-color:#000000"
         id="rect5-4"
         width="20"
         height="200"
         x="530"
         y="595" /></clipPath><linearGradient
       inkscape:collect="always"
       xlink:href="#linearGradient118859"
       id="linearGradient53"
       x1="20"
       y1="50"
       x2="80"
       y2="50"
       gradientUnits="userSpaceOnUse"
       gradientTransform="matrix(1.1666667,0,0,1.1666667,12.377344,-58.333337)" /><linearGradient
       inkscape:collect="always"
       xlink:href="#linearGradient119593"
       id="linearGradient52"
       x1="0"
       y1="0"
       x2="100"
       y2="100"
       gradientUnits="userSpaceOnUse" /><linearGradient
       inkscape:collect="always"
       id="linearGradient118859">
      <stop
   style="stop-color:#fc0000;stop-opacity:1;"
   offset="0"
   id="stop118855" />
      <stop
   style="stop-color:#000000;stop-opacity:1;"
   offset="1"
   id="stop118857" />
    </linearGradient><linearGradient
       inkscape:collect="always"
       id="linearGradient119593">
      <stop
   style="stop-color:#000000;stop-opacity:1;"
   offset="0"
   id="stop119589" />
      <stop
   style="stop-color:#f70000;stop-opacity:1;"
   offset="1"
   id="stop119591" />
    </linearGradient><clipPath
       clipPathUnits="userSpaceOnUse"
       id="clipPath27"><rect
         style="fill:none;stroke:#000000;stroke-width:0.999999;stroke-linecap:butt;stroke-linejoin:bevel;paint-order:stroke markers fill;stop-color:#000000"
         id="rect28-6"
         width="46.160622"
         height="39.922417"
         x="86.574379"
         y="420.06253" /></clipPath><clipPath
       clipPathUnits="userSpaceOnUse"
       id="clipPath15"><rect
         style="fill:none;stroke:#000000;stroke-linecap:butt;stroke-linejoin:bevel;paint-order:stroke markers fill;stop-color:#000000"
         id="rect15-7"
         width="45.034248"
         height="38.955639"
         x="262.48285"
         y="121.00073" /></clipPath><linearGradient
       id="swatch7"
       inkscape:swatch="solid"><stop
         style="stop-color:#feffff;stop-opacity:1;"
         offset="0"
         id="stop7" /></linearGradient><linearGradient
       inkscape:collect="always"
       id="linearGradient6731"><stop
         style="stop-color:#5983a6;stop-opacity:1;"
         offset="0"
         id="stop6727" /><stop
         style="stop-color:#1d2b3c;stop-opacity:1;"
         offset="1"
         id="stop6729" /></linearGradient><linearGradient
       inkscape:collect="always"
       id="linearGradient4545"><stop
         style="stop-color:#1d2b3c;stop-opacity:1;"
         offset="0"
         id="stop4541" /><stop
         style="stop-color:#1d2b3c;stop-opacity:1;"
         offset="1"
         id="stop4543" /></linearGradient><linearGradient
       inkscape:collect="always"
       xlink:href="#linearGradient4545"
       id="linearGradient4547"
       x1="274.96494"
       y1="250.22647"
       x2="274.96494"
       y2="744.89539"
       gradientUnits="userSpaceOnUse" /><linearGradient
       inkscape:collect="always"
       xlink:href="#linearGradient6731"
       id="linearGradient6733"
       x1="750.0777"
       y1="518.52997"
       x2="374.1358"
       y2="518.52997"
       gradientUnits="userSpaceOnUse" /><clipPath
       clipPathUnits="userSpaceOnUse"
       id="clipPath3"><g
         inkscape:label="Clip"
         id="use3" /></clipPath></defs><g
     inkscape:label="Camada 1"
     inkscape:groupmode="layer"
     id="layer1"
     transform="translate(-15.013279,-52.014138)"
     inkscape:export-filename=".\ap-logo-profile-v1.1.png"
     inkscape:export-xdpi="320"
     inkscape:export-ydpi="320"
     style="display:inline"><rect
       style="display:inline;fill:#ffffff;stroke:#1d2b3c;stroke-width:5.12931;stroke-linecap:round;stroke-linejoin:round;stroke-miterlimit:10;stroke-dasharray:none;stroke-dashoffset:0;stroke-opacity:1;paint-order:normal;fill-opacity:1"
       id="rect1"
       width="960.9353"
       height="185.37648"
       x="17.577934"
       y="54.578793"
       inkscape:label="rect1"
       rx="9.9986544"
       ry="10.525337" /><g
       id="g4"
       transform="translate(-1.532916e-5,-4.6908836)"><g
         id="g564"
         transform="matrix(0.25872508,0,0,0.25872508,54.558979,29.139245)"
         inkscape:label="ap"
         inkscape:export-filename="ap-logo.svg"
         inkscape:export-xdpi="230.67371"
         inkscape:export-ydpi="230.67371"
         style="display:inline;fill:#000000"><path
           d="m 445.20467,474.70725 h 109.58174 v 90 H 445.20467 Z"
           id="path852"
           style="display:none;stroke-width:1.18132"
           sodipodi:nodetypes="ccccc"
           inkscape:label="ligacao-ap" /><g
           aria-label="AP"
           id="text246"
           style="font-size:643.514px;line-height:0;font-family:Righteous;-inkscape-font-specification:'Righteous, Normal';text-align:center;text-anchor:middle;stroke-width:10.0006"
           inkscape:label="ap-text"><path
             d="m 370.4746,474.70725 v -89.64012 c 0,-12.35915 -2.18339,-23.98514 -7.00136,-34.87796 -4.6085,-11.10229 -10.99756,-20.73824 -19.16717,-28.90785 -8.16961,-8.16961 -17.80556,-14.55867 -28.90785,-19.16716 -10.89281,-4.81798 -22.56446,-7.22697 -34.92362,-7.22697 -12.35915,0 -24.04422,2.40899 -35.14651,7.22697 -10.89281,4.60849 -20.42403,10.99755 -28.59364,19.16716 -8.16961,8.16961 -14.6634,17.80556 -19.48138,28.90785 -4.60849,10.89282 -6.77847,22.51881 -6.77847,34.87796 v 89.64012 z m 90,270 h -90 v -180 h -180 v 180 h -90 V 385.06713 c 0,-24.92779 4.71324,-48.2845 14.13972,-70.07013 9.42647,-21.99511 22.20458,-41.16227 38.33432,-57.50149 16.33923,-16.33922 35.40165,-29.22207 57.18728,-38.64854 21.99511,-9.42648 45.41089,-14.13972 70.33868,-14.13972 24.92779,0 48.33016,4.71324 70.11579,14.13972 21.99511,9.42647 41.16227,22.30932 57.50149,38.64854 16.33922,16.33922 29.22207,35.50638 38.64855,57.50149 9.42647,21.78563 13.73417,45.14234 13.73417,70.07013 z"
             id="path691"
             sodipodi:nodetypes="cscscscscsccccccccscccscscsc"
             inkscape:label="a"
             style="font-size:643.514px;line-height:0;font-family:Righteous;-inkscape-font-specification:'Righteous, Normal';text-align:center;text-anchor:middle;display:inline;fill:url(#linearGradient4547);fill-opacity:1;stroke-width:10.0006" /><path
             d="m 630.4746,294.88719 v 179.82006 h 89.95408 c 12.35915,0 23.98514,-1.76443 34.87795,-6.37293 10.89282,-4.81798 20.42403,-11.31177 28.59364,-19.48138 8.16961,-8.16961 14.55867,-17.70083 19.16717,-28.59364 4.81797,-11.10229 7.22696,-22.83302 7.22696,-35.19217 0,-12.35915 -2.40899,-23.98514 -7.22696,-34.87796 -4.6085,-11.10229 -10.99756,-20.73824 -19.16717,-28.90785 -8.16961,-8.16961 -17.70082,-14.55867 -28.59364,-19.16716 -10.89281,-4.81798 -22.5188,-7.22697 -34.87795,-7.22697 z m -90,-90.17994 h 179.95408 c 16.5487,0 32.46897,2.19951 47.7608,6.59854 15.29184,4.18954 29.53629,10.26438 42.73335,18.22451 13.40654,7.75066 25.55622,17.17714 36.44904,28.27943 11.10229,10.89281 20.52876,23.04249 28.27942,36.44903 7.96013,13.40654 14.03497,27.75573 18.22452,43.04757 4.39902,15.29183 6.59871,31.21222 6.59871,47.76092 0,24.71831 -5.11298,48.07489 -14.53945,70.07 -9.42647,21.78563 -21.90976,40.84806 -38.24899,57.18728 -16.33922,16.33922 -35.50638,29.22207 -57.50149,38.64855 -21.78563,9.42647 -45.0376,13.73417 -69.75591,13.73417 H 630.4746 v 180 h -90 v -180 h -440 v -90 h 440"
             id="path693"
             inkscape:label="p"
             sodipodi:nodetypes="ccscscscscsccscccccscscsccccccc"
             style="font-size:643.514px;line-height:0;font-family:Righteous;-inkscape-font-specification:'Righteous, Normal';text-align:center;text-anchor:middle;display:inline;fill:url(#linearGradient6733);fill-opacity:1;stroke-width:10.0006"
             transform="translate(4.69e-6)" /></g></g><path
         style="font-weight:bold;font-size:96px;font-family:Righteous;-inkscape-font-specification:Righteous;fill:#1d2b3c"
         d="m 320.71674,162.59854 v -13.45312 q 0,-2.76563 -1.07813,-5.20313 -1.03125,-2.48437 -2.85937,-4.3125 -1.82813,-1.82812 -4.3125,-2.85937 -2.4375,-1.07813 -5.20313,-1.07813 -2.76562,0 -5.25,1.07813 -2.4375,1.03125 -4.26562,2.85937 -1.82813,1.82813 -2.90625,4.3125 -1.03125,2.4375 -1.03125,5.20313 v 13.45312 z m 13.45312,26.85938 h -13.45312 v -13.45313 h -26.90625 v 13.45313 h -13.40625 v -40.3125 q 0,-5.57813 2.10937,-10.45313 2.10938,-4.92187 5.71875,-8.57812 3.65625,-3.65625 8.53125,-5.76563 4.92188,-2.10937 10.5,-2.10937 5.57813,0 10.45313,2.10937 4.92187,2.10938 8.57812,5.76563 3.65625,3.65625 5.76563,8.57812 2.10937,4.875 2.10937,10.45313 z m 23.10938,0 h -12.79688 v -50.20313 h 3.09375 l 4.21875,4.875 q 3.09375,-2.8125 6.98438,-4.3125 3.9375,-1.54687 8.20312,-1.54687 4.59375,0 8.67188,1.78125 4.07812,1.73437 7.125,4.82812 3.04687,3.04688 4.78125,7.17188 1.78125,4.07812 1.78125,8.71875 v 28.6875 h -12.79688 v -28.6875 q 0,-1.96875 -0.75,-3.70313 -0.75,-1.78125 -2.0625,-3.09375 -1.3125,-1.3125 -3.04687,-2.0625 -1.73438,-0.75 -3.70313,-0.75 -2.01562,0 -3.79687,0.75 -1.78125,0.75 -3.09375,2.0625 -1.3125,1.3125 -2.0625,3.09375 -0.75,1.73438 -0.75,3.70313 z m 89.67187,0 h -3.09375 l -4.96875,-6.89063 q -1.82812,1.64063 -3.89062,3.09375 -2.01563,1.40625 -4.26563,2.48438 -2.25,1.03125 -4.64062,1.64062 -2.34375,0.60938 -4.78125,0.60938 -5.29688,0 -9.98438,-1.96875 -4.64062,-2.01563 -8.15625,-5.53125 -3.46875,-3.5625 -5.48437,-8.39063 -2.01563,-4.875 -2.01563,-10.59375 0,-5.67187 2.01563,-10.54687 2.01562,-4.875 5.48437,-8.4375 3.51563,-3.5625 8.15625,-5.57813 4.6875,-2.01562 9.98438,-2.01562 1.6875,0 3.46875,0.28125 1.82812,0.28125 3.51562,0.9375 1.73438,0.60937 3.23438,1.64062 1.5,1.03125 2.53125,2.53125 v -23.4375 h 12.89062 z m -12.89062,-25.54688 q 0,-2.625 -1.03125,-5.0625 -0.98438,-2.48437 -2.71875,-4.35937 -1.73438,-1.92188 -4.07813,-3.04688 -2.29687,-1.17187 -4.92187,-1.17187 -2.625,0 -4.96875,0.9375 -2.29688,0.9375 -4.03125,2.71875 -1.6875,1.73437 -2.67188,4.26562 -0.98437,2.53125 -0.98437,5.71875 0,2.76563 0.98437,5.25 0.98438,2.48438 2.67188,4.35938 1.73437,1.875 4.03125,2.95312 2.34375,1.07813 4.96875,1.07813 2.625,0 4.92187,-1.125 2.34375,-1.17188 4.07813,-3.04688 1.73437,-1.92187 2.71875,-4.35937 1.03125,-2.48438 1.03125,-5.10938 z m 35.4375,25.54688 h -12.79688 v -50.20313 h 3.09375 l 4.21875,5.95313 q 3.09375,-2.8125 7.03125,-4.3125 3.9375,-1.54688 8.15625,-1.54688 h 11.29688 v 12.75 h -11.29688 q -2.01562,0 -3.79687,0.75 -1.78125,0.75 -3.09375,2.0625 -1.3125,1.3125 -2.0625,3.09375 -0.75,1.78125 -0.75,3.79688 z m 46.92187,-12.28125 q 0.75,0.23437 1.5,0.32812 0.75,0.0469 1.5,0.0469 1.875,0 3.60938,-0.51563 1.73437,-0.51562 3.23437,-1.45312 1.54688,-0.98438 2.71875,-2.34375 1.21875,-1.40625 1.96875,-3.09375 l 9.375,9.42187 q -1.78125,2.53125 -4.125,4.54688 -2.29687,2.01562 -5.01562,3.42187 -2.67188,1.40625 -5.67188,2.10938 -2.95312,0.75 -6.09375,0.75 -5.29687,0 -9.98437,-1.96875 -4.64063,-1.96875 -8.15625,-5.48438 -3.46875,-3.51562 -5.48438,-8.34375 -2.01562,-4.875 -2.01562,-10.6875 0,-5.95312 2.01562,-10.875 2.01563,-4.92187 5.48438,-8.39062 3.51562,-3.46875 8.15625,-5.39063 4.6875,-1.92187 9.98437,-1.92187 3.14063,0 6.14063,0.75 3,0.75 5.67187,2.15625 2.71875,1.40625 5.0625,3.46875 2.34375,2.01562 4.125,4.54687 z m 6.5625,-26.39063 q -0.89062,-0.32812 -1.78125,-0.42187 -0.84375,-0.0937 -1.78125,-0.0937 -2.625,0 -4.96875,0.98437 -2.29687,0.9375 -4.03125,2.71875 -1.6875,1.78125 -2.67187,4.3125 -0.98438,2.48438 -0.98438,5.625 0,0.70313 0.0469,1.59375 0.0937,0.89063 0.23437,1.82813 0.1875,0.89062 0.42188,1.73437 0.23437,0.84375 0.60937,1.5 z m -3.9375,-17.29687 -5.29687,-6.98438 13.92187,-12.98437 7.6875,9.79687 z m 69.46875,2.20312 v 26.90625 h 13.45313 q 2.76562,0 5.20312,-1.03125 2.4375,-1.07812 4.26563,-2.90625 1.82812,-1.82812 2.85937,-4.26562 1.07813,-2.48438 1.07813,-5.25 0,-2.76563 -1.07813,-5.20313 -1.03125,-2.48437 -2.85937,-4.3125 -1.82813,-1.82812 -4.26563,-2.85937 -2.4375,-1.07813 -5.20312,-1.07813 z m 0,53.76563 h -13.45312 v -67.21875 h 26.90625 q 3.70312,0 7.125,0.98437 3.42187,0.9375 6.375,2.71875 3,1.73438 5.4375,4.21875 2.48437,2.4375 4.21875,5.4375 1.78125,3 2.71875,6.42188 0.98437,3.42187 0.98437,7.125 0,5.53125 -2.10937,10.45312 -2.10938,4.875 -5.76563,8.53125 -3.65625,3.65625 -8.57812,5.76563 -4.875,2.10937 -10.40625,2.10937 h -13.45313 z m 95.34375,-25.54688 q 0,5.625 -2.01562,10.5 -2.01563,4.82813 -5.48438,8.39063 -3.46875,3.51562 -8.15625,5.57812 -4.64062,2.01563 -9.98437,2.01563 -5.29688,0 -9.98438,-2.01563 -4.64062,-2.0625 -8.15625,-5.57812 -3.46875,-3.5625 -5.48437,-8.39063 -2.01563,-4.875 -2.01563,-10.5 0,-5.71875 2.01563,-10.59375 2.01562,-4.875 5.48437,-8.39062 3.51563,-3.5625 8.15625,-5.57813 4.6875,-2.01562 9.98438,-2.01562 5.34375,0 9.98437,1.92187 4.6875,1.875 8.15625,5.39063 3.46875,3.46875 5.48438,8.39062 2.01562,4.875 2.01562,10.875 z m -12.89062,0 q 0,-3.09375 -1.03125,-5.57812 -0.98438,-2.53125 -2.71875,-4.3125 -1.73438,-1.82813 -4.07813,-2.76563 -2.29687,-0.98437 -4.92187,-0.98437 -2.625,0 -4.96875,0.98437 -2.29688,0.9375 -4.03125,2.76563 -1.6875,1.78125 -2.67188,4.3125 -0.98437,2.48437 -0.98437,5.57812 0,2.90625 0.98437,5.39063 0.98438,2.48437 2.67188,4.3125 1.73437,1.82812 4.03125,2.90625 2.34375,1.03125 4.96875,1.03125 2.625,0 4.92187,-0.98438 2.34375,-0.98437 4.07813,-2.76562 1.73437,-1.78125 2.71875,-4.3125 1.03125,-2.53125 1.03125,-5.57813 z m 58.59375,25.54688 h -41.85938 l 21.14063,-37.35938 h -21.14063 v -12.75 h 41.85938 l -21.14063,37.35938 h 21.14063 z m 46.26562,0 h -41.85937 l 21.14062,-37.35938 h -21.14062 v -12.75 h 41.85937 l -21.14062,37.35938 h 21.14062 z m 54.9375,0 h -3.09375 l -4.96875,-6.89063 q -1.82812,1.64063 -3.89062,3.09375 -2.01563,1.40625 -4.26563,2.48438 -2.25,1.03125 -4.64062,1.64062 -2.34375,0.60938 -4.78125,0.60938 -5.29688,0 -9.98438,-1.78125 -4.64062,-1.78125 -8.15625,-5.15625 -3.46875,-3.42188 -5.48437,-8.34375 -2.01563,-4.92188 -2.01563,-11.20313 0,-5.85937 2.01563,-10.73437 2.01562,-4.92188 5.48437,-8.4375 3.51563,-3.51563 8.15625,-5.4375 4.6875,-1.96875 9.98438,-1.96875 2.4375,0 4.82812,0.60937 2.39063,0.60938 4.64063,1.6875 2.25,1.07813 4.26562,2.53125 2.0625,1.45313 3.84375,3.14063 l 4.96875,-5.95313 h 3.09375 z m -12.89062,-25.54688 q 0,-2.625 -1.03125,-5.0625 -0.98438,-2.48437 -2.71875,-4.35937 -1.73438,-1.92188 -4.07813,-3.04688 -2.29687,-1.17187 -4.92187,-1.17187 -2.625,0 -4.96875,0.89062 -2.29688,0.89063 -4.03125,2.625 -1.6875,1.73438 -2.67188,4.3125 -0.98437,2.53125 -0.98437,5.8125 0,3.28125 0.98437,5.85938 0.98438,2.53125 2.67188,4.26562 1.73437,1.73438 4.03125,2.625 2.34375,0.89063 4.96875,0.89063 2.625,0 4.92187,-1.125 2.34375,-1.17188 4.07813,-3.04688 1.73437,-1.92187 2.71875,-4.35937 1.03125,-2.48438 1.03125,-5.10938 z m 35.4375,25.54688 h -12.79688 v -50.20313 h 3.09375 l 4.21875,4.875 q 3.09375,-2.8125 6.98438,-4.3125 3.9375,-1.54687 8.20312,-1.54687 4.59375,0 8.67188,1.78125 4.07812,1.73437 7.125,4.82812 3.04687,3.04688 4.78125,7.17188 1.78125,4.07812 1.78125,8.71875 v 28.6875 h -12.79688 v -28.6875 q 0,-1.96875 -0.75,-3.70313 -0.75,-1.78125 -2.0625,-3.09375 -1.3125,-1.3125 -3.04687,-2.0625 -1.73438,-0.75 -3.70313,-0.75 -2.01562,0 -3.79687,0.75 -1.78125,0.75 -3.09375,2.0625 -1.3125,1.3125 -2.0625,3.09375 -0.75,1.73438 -0.75,3.70313 z"
         id="text1"
         transform="translate(30.163934)"
         aria-label="André Pozzan" /></g></g></svg>
